<?xml version="1.0" standalone="no"?>
<!DOCTYPE svg PUBLIC "-//W3C//DTD SVG 20010904//EN"
 "http://www.w3.org/TR/2001/REC-SVG-20010904/DTD/svg10.dtd">
<svg version="1.0" xmlns="http://www.w3.org/2000/svg"
 width="2145.000000pt" height="2145.000000pt" viewBox="0 0 2145.000000 2145.000000"
 preserveAspectRatio="xMidYMid meet">
<metadata>
Created by potrace 1.11, written by Peter Selinger 2001-2013
</metadata>
<g transform="translate(0.000000,2145.000000) scale(0.100000,-0.100000)"
fill="#000000" stroke="none">
<path d="M8298 14545 c-2 -2 -25 -5 -53 -8 -27 -3 -61 -8 -75 -11 -75 -16
-127 -30 -143 -38 -10 -5 -26 -11 -35 -13 -38 -7 -157 -69 -239 -124 -254
-171 -433 -449 -489 -761 -4 -19 -8 -528 -9 -1131 -3 -1078 -3 -1097 16 -1118
28 -30 63 -26 133 13 120 66 172 94 231 125 33 18 83 44 110 59 28 15 86 47
130 71 44 24 107 58 140 76 247 135 359 195 366 195 5 0 9 4 9 9 0 5 10 13 23
17 12 4 65 30 117 59 52 29 124 68 160 87 36 20 157 86 270 148 113 61 232
127 265 145 59 32 144 78 255 138 30 16 60 32 65 37 24 17 108 32 151 26 40
-5 124 -45 264 -123 31 -18 423 -231 555 -303 88 -48 409 -222 450 -245 22
-12 72 -39 110 -60 39 -21 88 -48 110 -60 22 -12 72 -38 110 -59 39 -21 88
-49 110 -61 22 -12 76 -41 120 -65 44 -24 98 -53 120 -65 22 -12 81 -43 130
-70 50 -26 110 -59 135 -73 25 -14 68 -38 95 -52 90 -49 189 -102 233 -126 24
-13 91 -50 150 -81 184 -97 222 -134 227 -217 5 -79 -37 -119 -155 -146 -43
-10 -370 -13 -1590 -13 -844 0 -1553 3 -1574 7 -107 18 -186 98 -186 190 0 59
21 101 124 245 44 62 93 129 107 150 14 20 81 113 149 206 177 244 200 281
200 326 0 30 -7 43 -35 68 -41 36 -72 40 -180 28 -98 -10 -238 -54 -435 -134
-112 -46 -761 -371 -805 -403 -5 -4 -46 -26 -90 -50 -44 -23 -87 -48 -95 -55
-8 -6 -44 -29 -80 -50 -107 -64 -250 -173 -331 -254 -169 -170 -298 -424 -354
-696 -7 -38 -17 -86 -21 -105 -4 -19 -8 -757 -10 -1640 -2 -1554 -2 -1606 16
-1630 l19 -25 1709 -2 c1687 -1 1710 -1 1731 18 12 11 22 25 22 32 1 7 2 320
3 697 l1 685 1187 1 c653 1 1211 5 1240 9 119 16 155 24 252 57 191 66 393
209 502 354 16 22 32 41 35 44 11 9 76 114 103 168 29 57 84 217 92 267 2 16
9 55 14 85 11 66 8 4230 -3 4275 -4 17 -14 59 -23 94 -102 419 -438 739 -879
837 -75 17 -218 18 -2527 19 -1346 1 -2449 1 -2450 0z"/>
<path d="M15510 14538 c-116 -15 -137 -20 -224 -49 -353 -118 -622 -394 -730
-749 -14 -47 -28 -101 -31 -120 -3 -19 -9 -57 -13 -85 -9 -57 -8 -5581 1
-5635 13 -78 18 -107 29 -145 6 -22 12 -45 14 -51 13 -69 126 -286 188 -364
52 -65 198 -200 263 -243 134 -89 320 -161 474 -184 24 -4 1365 -8 2981 -9
2902 -2 2936 -2 2957 17 12 11 21 23 22 27 5 41 1 3504 -4 3523 -4 16 -18 31
-34 37 -20 8 -467 11 -1478 11 -797 0 -1457 0 -1465 0 -13 1 -15 23 -13 149 1
81 2 174 2 207 l1 60 1457 -2 c941 -1 1470 2 1491 9 22 7 34 18 39 36 8 34 8
3489 0 3523 -4 16 -18 31 -34 37 -32 12 -5802 13 -5893 0z"/>
<path d="M985 14533 c-494 -71 -875 -436 -969 -928 -23 -120 -23 -2390 0
-2510 53 -278 194 -513 411 -686 110 -87 297 -181 406 -203 80 -17 138 -26
177 -30 25 -2 617 -5 1315 -5 1116 -1 1272 -3 1290 -17 19 -14 20 -27 20 -175
0 -157 -1 -161 -24 -180 -23 -19 -65 -19 -1770 -19 -1714 0 -1747 0 -1778 -20
-68 -41 -64 15 -60 -978 1 -493 6 -910 10 -927 4 -16 10 -43 13 -60 29 -149
120 -335 231 -472 169 -210 449 -368 708 -400 75 -10 4942 -11 5010 -1 28 4
63 11 78 17 15 6 27 9 27 6 0 -13 261 91 295 118 5 4 39 27 74 49 104 67 239
208 319 333 35 57 103 209 122 275 45 159 46 200 43 1420 -1 635 -3 1162 -4
1170 -1 8 -7 45 -15 82 -77 382 -352 699 -720 831 -178 64 -99 61 -1542 62
-1311 2 -1314 2 -1334 23 -19 19 -21 32 -21 165 1 161 5 184 37 197 13 4 819
8 1792 8 l1769 0 20 24 c20 23 20 33 19 928 -1 498 -4 919 -7 935 -4 17 -11
54 -16 82 -24 125 -107 315 -180 413 -14 19 -30 41 -36 49 -29 39 -167 173
-215 209 -109 80 -294 169 -391 188 -19 3 -65 12 -104 19 -57 11 -540 13
-2520 13 -1347 -1 -2463 -3 -2480 -5z"/>
</g>
</svg>
